{"title":"The.Great.Dictator.1940.1080p.BRRip.XviD.AC3.RoHardSubbed-RSB ","uid":5906881,"size":10024395729,"categoryP":"video","categoryS":"hd___movies","magnet":"?xt=urn:btih:125d220e911955369caa198b62a5401e2870558d&amp;dn=The.Great.Dictator.1940.1080p.BRRip.XviD.AC3.RoHardSubbed-RSB+&amp;tr=udp%3A%2F%2Ftracker.openbittorrent.com%3A80&amp;tr=udp%3A%2F%2Fopen.demonii.com%3A1337&amp;tr=udp%3A%2F%2Ftracker.coppersurfer.tk%3A6969&amp;tr=udp%3A%2F%2Fexodus.desync.com%3A6969","seeders":0,"leechers":1,"uploader":"deffjam555","files":6,"time":1287899481,"description":"cover\n\nPlot:\n\nDuring the last days of the First World War, a clumsy soldier saves the life of devoted military pilot Schultz. Unfortunately, their flight from the advancing enemy ends in a severe crash with the clumsy soldier losing his memories. After quite some years in the hospital, the amnesia patient gets released and reopens his old barber shop in the Jewish ghetto. But times have changed in the country of Tomania: Dictator Adenoid Hynkel, who accidentally looks very similar to the barber, has laid his merciless grip on the country, and the Jewish people are discriminated against. One day, the barber gets in trouble and is brought before a commanding officer, who turns out to be his old comrade Schultz. So, the ghetto enjoys protection from then on. Meanwhile, Dictator Hynkel develops big plans, he wants to become Dictator of the whole world and needs a scapegoat for the public. Soon, Schultz is being arrested for being too Jewish-friendly...\n\nCast:\n\nCharles Chaplin\t... Hynkel - Dictator of Tomania / A Jewish Barber\nJack Oakie\t... Napaloni - Dictator of Bacteria\nReginald Gardiner\t... Schultz\nHenry Daniell\t... Garbitsch\nBilly Gilbert\t... Herring\nGrace Hayle\t... Madame Napaloni\nCarter DeHaven\t... Bacterian Ambassador (as Carter De Haven)\nPaulette Goddard\t... Hannah\nMaurice Moscovitch\t... Mr. Jaeckel (as Maurice Moscovich)\nEmma Dunn\t... Mrs. Jaeckel\nBernard Gorcey\t... Mr. Mann\nPaul Weigel\t... Mr. Agar\nChester Conklin\t... Barber's Customer\nEsther Michelson\t... Jewish Woman\nHank Mann\t... Storm Trooper Stealing Fruit\nFlorence Wright\t... Blonde Secretary\nEddie Gribbon\t... Tomanian Storm Trooper\nRudolph Anders\t... Tomanian Commandant at Osterlich (as Robert O. Davis)\nEddie Dunn\t... Whitewashed Storm Trooper\nNita Pike\t... Secretary\n\n\n\nSOURCE: Blu-Ray 1080p\nAUDIO LANGUAGE: English\n\nFormat : AVI\nFormat/Info : Audio Video Interleave\nFormat profile : OpenDML\nFile size : 9.18 GiB\nDuration : 2h 5mn\nOverall bit rate : 10.5 Mbps\n\nVideo\nFormat : MPEG-4 Visual\nFormat settings, BVOP : Yes\nFormat settings, QPel : No\nFormat settings, GMC : No warppoints\nFormat settings, Matrix : Default (H.263)\nCodec ID/Hint : XviD\nDuration : 2h 5mn\nBit rate : 10.3 Mbps\nWidth : 1 920 pixels\nHeight : 1 080 pixels\nDisplay aspect ratio : 16:9\nFrame rate : 23.976 fps\nColor space : YUV\nChroma subsampling : 4:2:0\nBit depth : 8 bits\nScan type : Progressive\nBits/(Pixel*Frame) : 0.207\nStream size : 9.00 GiB (98%)\n\nAudio\nFormat : AC-3\nFormat/Info : Audio Coding 3\nMode extension : CM (complete main)\nCodec ID : 2000\nDuration : 2h 5mn\nBit rate mode : Constant\nBit rate : 192 Kbps\nChannel(s) : 6 channels\nChannel positions : Front: L C R, Side: L R, LFE\nSampling rate : 48.0 KHz\nBit depth : 16 bits\nStream size : 172 MiB (2%)\nAlignment : Split accross interleaves\nInterleave, duration : 42 ms (1.00 video frame)\nInterleave, preload duration : 500 ms\n\n\nEnJoY iT ! \n\nscreens\n","torrent":{"xt":"urn:btih:125d220e911955369caa198b62a5401e2870558d","amp;dn":"The.Great.Dictator.1940.1080p.BRRip.XviD.AC3.RoHardSubbed-RSB+","amp;tr":["udp%3A%2F%2Ftracker.openbittorrent.com%3A80","udp%3A%2F%2Fopen.demonii.com%3A1337","udp%3A%2F%2Ftracker.coppersurfer.tk%3A6969","udp%3A%2F%2Fexodus.desync.com%3A6969"],"infoHash":"125d220e911955369caa198b62a5401e2870558d","infoHashBuffer":{"type":"Buffer","data":[18,93,34,14,145,25,85,54,156,170,25,139,98,165,64,30,40,112,85,141]},"announce":[],"urlList":[]}}